<svg width="32" height="32" viewBox="0 0 32 32" fill="none" xmlns="http://www.w3.org/2000/svg">
<rect width="32" height="32" rx="16" fill="#222222"/>
<path d="M20.2478 16.1585C20.68 16.1342 21.1061 16.0216 21.5392 16.0606C21.7453 16.0788 22.0448 16.2122 22.0954 16.4384C22.1583 16.72 21.7881 16.8898 21.6737 17.1021C21.5051 17.4149 21.6745 17.8516 21.7426 18.1739C22.1111 19.9156 22.5346 21.6442 23.0734 23.3425C23.2995 24.0547 23.5938 24.7965 23.9544 25.4532C24.1928 25.9307 23.4331 25.9749 23.1371 25.9731C22.2089 25.9671 21.2807 25.961 20.3517 25.9558C19.4235 25.9506 18.4953 25.9471 17.5662 25.9445C16.638 25.9419 15.7099 25.9402 14.7808 25.9402C13.8613 25.9402 12.9419 25.9463 12.0224 25.9471C11.1143 25.9489 10.208 26.0277 9.29898 25.9896C9.01694 25.9775 8.73229 25.9619 8.45462 25.909C8.328 25.8848 8.17258 25.8579 8.07042 25.7738C8.03636 25.7461 8.00667 25.7106 8.00667 25.6647C7.93857 25.3839 8.41008 25.3068 8.58385 25.2418C8.76459 25.1734 8.94796 25.1075 9.11387 25.007C9.81503 24.5842 10.132 23.8225 10.414 23.0947C11.7255 19.7041 13.0178 16.3058 14.3468 12.9222C14.6769 12.0808 14.9982 11.2352 15.3265 10.3929C15.6505 9.56198 15.9587 8.72496 16.3464 7.92C16.3979 7.81256 16.4494 7.70511 16.5071 7.60027C16.5516 7.51882 16.6302 7.40184 16.6302 7.30653C16.6974 7.03965 16.5586 6.8135 16.2984 6.72512C16.0443 6.63847 15.7622 6.687 15.5047 6.72945C15.1152 6.79357 14.7398 6.94001 14.4132 7.16183C14.3669 7.19302 14.3215 7.22595 14.2778 7.26061C14.0307 7.45297 13.8159 7.68518 13.6448 7.94686C13.2545 8.54213 12.9323 9.18766 12.6048 9.81846C12.2634 10.4761 11.9159 11.1372 11.6452 11.827C11.6042 11.9318 11.564 12.0384 11.4994 12.1311C11.4278 12.2351 11.2907 12.3728 11.158 12.2949C11.0907 12.2559 11.0506 12.1831 11.0261 12.1103C10.786 11.3851 10.7004 10.6026 10.4865 9.86352C10.2996 9.21972 10.0508 8.59152 9.72247 8.00491C9.56792 7.72851 9.39416 7.46163 9.20468 7.20689C9.01432 6.95127 8.74189 6.76325 8.56551 6.49724C8.51137 6.41405 8.46684 6.31788 8.47732 6.21996C8.5105 5.90803 8.98638 6.01547 9.19944 6.0276C11.6356 6.16451 14.084 6.12812 16.5228 6.12205C17.437 6.11945 18.3512 6.11512 19.2654 6.10732C19.7108 6.10732 20.157 6.10385 20.6014 6.09866C20.8284 6.09606 21.0528 6.07179 21.2807 6.07699C21.52 6.08219 21.7636 6.08046 21.9985 6.13505C22.1164 6.16278 22.2404 6.2217 22.3163 6.31788C22.3591 6.37246 22.3836 6.44611 22.3644 6.5137C22.3294 6.63847 22.1757 6.69393 22.0631 6.72426C21.7234 6.81437 21.3506 6.77971 21.0284 6.92874C20.6643 7.09771 20.4704 7.42697 20.3071 7.7753C20.0557 8.31252 19.8094 8.85147 19.5702 9.39388C19.0917 10.4787 18.614 11.5653 18.1836 12.6701C18.0028 13.1336 17.8334 13.6024 17.664 14.0712C17.4265 14.7288 17.1209 15.4558 17.9705 15.7712C18.6525 16.0242 19.4008 16.1741 20.1299 16.1637C20.1701 16.162 20.2093 16.1602 20.2478 16.1585ZM18.1128 25.2384C18.2368 25.2297 18.36 25.221 18.4839 25.2124C18.8498 25.1855 19.2558 25.1907 19.5754 24.9871C19.5815 24.9836 19.5868 24.9793 19.5929 24.9758C19.6758 24.9186 19.7405 24.8424 19.7728 24.7471C19.8278 24.5842 19.7902 24.4013 19.7448 24.2402C19.4951 23.3642 19.2558 22.4856 19.0262 21.6043C18.7983 20.7275 18.5835 19.8471 18.3696 18.9676C18.2849 18.621 18.2098 18.2727 18.1277 17.9253C18.0465 17.5787 17.9723 17.2312 17.8107 16.9115C17.7094 16.7105 17.5741 16.4886 17.3706 16.3751C17.2676 16.3171 17.1471 16.2954 17.0327 16.3318C16.9052 16.3725 16.8144 16.4834 16.7402 16.5935C16.4957 16.9574 16.3482 17.375 16.1988 17.7866C15.4173 19.9528 14.5634 22.0939 13.6387 24.2038C13.5444 24.4178 13.4859 24.689 13.6064 24.9056C13.7662 25.1924 14.1338 25.2488 14.4333 25.2704C15.3326 25.3337 16.2355 25.3302 17.1358 25.2921C17.4606 25.2791 17.7871 25.26 18.1128 25.2384Z" fill="#EEEEEE"/>
</svg>
