<svg width="27" height="34" viewBox="0 0 27 34" fill="none" xmlns="http://www.w3.org/2000/svg">
<path d="M20.6681 17.2695C21.3975 17.2282 22.1165 17.0367 22.8474 17.103C23.1951 17.1339 23.7005 17.3608 23.786 17.7452C23.8921 18.224 23.2673 18.5127 23.0743 18.8736C22.7899 19.4053 23.0758 20.1477 23.1907 20.6957C23.8125 23.6565 24.5272 26.5951 25.4363 29.4823C25.818 30.6931 26.3145 31.954 26.9231 33.0705C27.3253 33.8822 26.0434 33.9573 25.5439 33.9543C23.9776 33.944 22.4112 33.9337 20.8435 33.9249C19.2771 33.916 17.7108 33.9101 16.143 33.9057C14.5767 33.9013 13.0104 33.8984 11.4426 33.8984C9.89101 33.8984 8.33942 33.9087 6.78784 33.9101C5.25541 33.9131 3.72593 34.0471 2.19203 33.9823C1.71609 33.9617 1.23573 33.9352 0.767163 33.8453C0.553508 33.8041 0.291227 33.7584 0.118828 33.6155C0.0613622 33.5684 0.0112636 33.508 0.0112636 33.4299C-0.103669 32.9527 0.692016 32.8216 0.98524 32.7111C1.29025 32.5947 1.59968 32.4828 1.87965 32.3119C3.06286 31.5931 3.59774 30.2983 4.07367 29.061C6.28685 23.297 8.46762 17.5199 10.7103 11.7677C11.2672 10.3374 11.8095 8.89977 12.3635 7.46799C12.9102 6.05537 13.4303 4.63243 14.0846 3.264C14.1715 3.08134 14.2584 2.89869 14.3557 2.72045C14.4308 2.58199 14.5634 2.38313 14.5634 2.2211C14.6769 1.76741 14.4426 1.38295 14.0035 1.23271C13.5747 1.0854 13.0988 1.16789 12.6641 1.24007C12.0069 1.34908 11.3733 1.59802 10.8223 1.97511C10.7442 2.02814 10.6675 2.08411 10.5939 2.14303C10.1769 2.47004 9.81439 2.86481 9.52558 3.30966C8.86693 4.32163 8.32321 5.41902 7.77066 6.49138C7.19452 7.6094 6.60807 8.73331 6.15129 9.90584C6.08204 10.0841 6.01426 10.2653 5.90522 10.4229C5.78439 10.5996 5.55306 10.8338 5.32909 10.7013C5.21563 10.635 5.14785 10.5112 5.10659 10.3875C4.70138 9.1546 4.55698 7.82446 4.19597 6.56798C3.88065 5.47353 3.4607 4.40559 2.90667 3.40835C2.64586 2.93846 2.35264 2.48477 2.03289 2.0517C1.71167 1.61716 1.25194 1.29752 0.954297 0.845303C0.86294 0.703893 0.787792 0.540388 0.805474 0.373937C0.861467 -0.15635 1.66452 0.0263047 2.02405 0.046927C6.13508 0.279664 10.2667 0.217797 14.3822 0.207486C15.9249 0.203067 17.4677 0.195702 19.0104 0.182445C19.7619 0.182445 20.5149 0.176553 21.2649 0.167714C21.648 0.163295 22.0267 0.122051 22.4112 0.130889C22.815 0.139727 23.2261 0.136781 23.6225 0.229581C23.8214 0.276718 24.0306 0.376883 24.1588 0.540388C24.231 0.633188 24.2723 0.758395 24.2398 0.87329C24.1809 1.0854 23.9216 1.17968 23.7315 1.23123C23.1583 1.38443 22.5291 1.32551 21.9854 1.57887C21.371 1.8661 21.0438 2.42585 20.7683 3.018C20.3439 3.93128 19.9284 4.84749 19.5247 5.7696C18.7172 7.61382 17.9112 9.46099 17.1848 11.3391C16.8798 12.1271 16.5939 12.9241 16.3081 13.721C15.9073 14.839 15.3915 16.0748 16.8252 16.611C17.976 17.0411 19.2388 17.296 20.4692 17.2783C20.537 17.2753 20.6033 17.2724 20.6681 17.2695ZM17.0654 32.7052C17.2747 32.6905 17.4824 32.6758 17.6917 32.661C18.309 32.6154 18.9942 32.6242 19.5335 32.278C19.5438 32.2721 19.5527 32.2648 19.563 32.2589C19.703 32.1617 19.812 32.032 19.8665 31.87C19.9594 31.5931 19.896 31.2823 19.8194 31.0083C19.398 29.5191 18.9942 28.0254 18.6067 26.5274C18.2221 25.0367 17.8596 23.5401 17.4986 22.045C17.3557 21.4558 17.229 20.8636 17.0905 20.2729C16.9534 19.6837 16.8282 19.0931 16.5556 18.5495C16.3847 18.2078 16.1563 17.8307 15.813 17.6377C15.6391 17.539 15.4357 17.5022 15.2427 17.5641C15.0276 17.6333 14.8743 17.8218 14.7491 18.0089C14.3365 18.6276 14.0875 19.3376 13.8355 20.0373C12.5168 23.7198 11.0757 27.3596 9.51527 30.9464C9.35613 31.3103 9.25741 31.7713 9.46075 32.1396C9.7304 32.6271 10.3507 32.7229 10.8561 32.7597C12.3738 32.8672 13.8974 32.8614 15.4166 32.7965C15.9647 32.7744 16.5158 32.742 17.0654 32.7052Z" fill="#222222"/>
</svg>
