<!-- icon666.com - MILLIONS OF FREE VECTOR ICONS --><svg viewBox="-57 0 512 512" xmlns="http://www.w3.org/2000/svg"><g fill-rule="evenodd"><path d="m199.476562 0c-109.992187 0-199.476562 89.484375-199.476562 199.476562v111.261719c0 5.523438 4.476562 10 10 10s10-4.476562 10-10v-111.261719c0-98.964843 80.511719-179.476562 179.476562-179.476562 98.964844 0 179.476563 80.511719 179.476563 179.476562 0 98.964844-80.511719 179.476563-179.476563 179.476563-22.078124 0-43.648437-3.972656-64.113281-11.800781-3.734375-1.433594-7.964843-.496094-10.75 2.375l-104.613281 107.808594v-86.597657c0-5.523437-4.476562-10-10-10s-10 4.476563-10 10v111.261719c0 4.070312 2.46875 7.738281 6.242188 9.269531 1.21875.492188 2.492187.730469 3.753906.730469 2.65625 0 5.257812-1.058594 7.179687-3.035156l117.28125-120.863282c20.878907 7.203126 42.71875 10.851563 65.019531 10.851563 109.992188 0 199.476563-89.484375 199.476563-199.476563 0-109.992187-89.484375-199.476562-199.476563-199.476562zm0 0"></path><path d="m344.207031 199.476562c0-79.804687-64.925781-144.730468-144.730469-144.730468-79.804687 0-144.730468 64.925781-144.730468 144.730468 0 79.804688 64.925781 144.730469 144.730468 144.730469 79.804688 0 144.730469-64.925781 144.730469-144.730469zm-269.460937 0c0-68.777343 55.953125-124.730468 124.730468-124.730468 68.777344 0 124.730469 55.953125 124.730469 124.730468 0 68.777344-55.953125 124.730469-124.730469 124.730469-68.777343 0-124.730468-55.953125-124.730468-124.730469zm0 0"></path><path d="m10 360.738281c5.507812 0 10-4.492187 10-10 0-5.507812-4.492188-10-10-10s-10 4.492188-10 10c0 5.507813 4.492188 10 10 10zm0 0"></path></g></svg>