<svg width="20" height="12" viewBox="0 0 20 12" fill="none" xmlns="http://www.w3.org/2000/svg">
<path d="M19.1963 11.999H17.0065C16.1783 11.999 15.9288 11.3216 14.4443 9.82126C13.1469 8.5584 12.5989 8.40139 12.2707 8.40139C11.8168 8.40139 11.693 8.52739 11.693 9.15833V11.1471C11.693 11.685 11.5203 12 10.1288 12C8.77893 11.9084 7.46987 11.4942 6.3095 10.7916C5.14913 10.0889 4.17065 9.11789 3.45465 7.95847C1.75517 5.82105 0.572328 3.31299 0 0.633326C0 0.301863 0.124751 0.00141336 0.750427 0.00141336H2.93837C3.50071 0.00141336 3.70319 0.254373 3.92391 0.838795C4.98621 3.99642 6.79894 6.74311 7.53498 6.74311C7.81711 6.74311 7.93994 6.61711 7.93994 5.9067V2.65409C7.84685 1.17026 7.06668 1.04523 7.06668 0.508301C7.07655 0.366644 7.14071 0.234454 7.24553 0.139807C7.35035 0.0451605 7.48758 -0.00448592 7.62806 0.00141336H11.0674C11.5376 0.00141336 11.693 0.237896 11.693 0.805842V5.19628C11.693 5.67021 11.8946 5.82722 12.0366 5.82722C12.3187 5.82722 12.5356 5.67021 13.0528 5.14879C14.1611 3.78287 15.0668 2.26148 15.7417 0.632357C15.8104 0.436545 15.9409 0.268902 16.113 0.155116C16.2851 0.0413305 16.4894 -0.0123212 16.6946 0.00238248H18.8835C19.5399 0.00238248 19.679 0.333846 19.5399 0.806812C18.7435 2.60786 17.7585 4.31757 16.6015 5.9067C16.3654 6.27014 16.2714 6.45913 16.6015 6.88558C16.8184 7.21704 17.5861 7.86446 18.1014 8.4799C18.8518 9.23587 19.4746 10.1101 19.9458 11.0676C20.1339 11.684 19.8211 11.999 19.1963 11.999Z" fill="#222222"/>
</svg>
